<svg width="137" height="129" xmlns="http://www.w3.org/2000/svg" xmlns:xlink="http://www.w3.org/1999/xlink" overflow="hidden"><defs><clipPath id="clip0"><rect x="-2" y="-2" width="137" height="129"/></clipPath></defs><g clip-path="url(#clip0)" transform="translate(2 2)"><path d="M67.3472 92.2465C60.1032 85.025 56.6537 75.052 56.6537 62.3282 56.6537 56.826 57.3436 50.9797 59.4133 45.8215 61.1382 41.007 63.5526 36.5363 67.0021 32.7537 70.4515 28.9707 74.5909 26.2196 79.4201 24.5003 84.5945 22.437 90.4584 21.4051 95.9775 21.4051 101.152 21.4051 106.671 22.0929 111.5 24.1562 90.1136-2.6672 51.1346-7.48166 24.2288 13.8395-2.67692 35.1607-7.50616 74.0205 13.8805 100.844 35.2671 127.667 74.2461 132.482 101.152 111.161 104.601 108.409 108.051 105.314 110.81 101.875 106.326 102.907 101.842 103.595 97.3573 103.595 84.5945 103.251 74.5909 99.4684 67.3472 92.2465Z" stroke="#000000" stroke-width="4.58333" stroke-miterlimit="4.58333" fill="transparent" fill-rule=""/><path d="M77.9644 56.5002 113.09 56.5002C114.467 56.5002 115.5 55.4869 115.5 54.474 115.5 48.7329 113.09 43.3296 109.646 38.9396 105.858 35.2247 101.037 33.1985 95.5268 33.5364 90.3615 33.1985 85.1959 35.5626 81.7522 39.2771 77.9644 43.6675 75.8982 49.0707 75.5536 54.474 75.2094 55.4869 76.5869 56.5002 77.9644 56.5002Z" stroke="#000000" stroke-width="4.58333" stroke-miterlimit="8" fill="#FFFFFF" fill-rule="evenodd"/><path d="M116.861 65.5377 76.9305 65.5377C75.542 65.5377 74.5001 66.2299 74.5001 67.6135 74.5001 67.6135 74.5001 67.6135 74.5001 67.9593 74.5001 72.1102 75.542 76.2612 77.6249 80.0664 81.0972 87.3304 88.389 91.8275 96.3754 91.4814 98.8058 91.4814 101.236 91.1357 103.667 90.4438 105.75 89.7517 108.181 88.7141 109.917 87.3304 112 85.9468 113.737 84.5631 115.472 83.1795 117.209 81.7958 120.334 78.6828 121.375 77.6449 121.723 77.2991 122.07 76.953 122.417 76.953 123.458 72.8021 124.153 68.6511 124.5 64.5001 122.07 65.192 119.292 65.5377 116.861 65.5377Z" stroke="#000000" stroke-width="4.58333" stroke-miterlimit="8" fill="#FFFFFF" fill-rule="evenodd"/><path d="M112.236 101.148C120.222 98.3311 128.902 90.5846 130.291 82.8382 131.333 77.9086 128.208 76.8525 126.819 76.5002L125.778 76.5002C124.736 76.5002 123.694 76.8525 122.653 77.2044 120.222 86.0074 116.055 94.458 110.5 101.5L112.236 101.148Z" stroke="#000000" stroke-width="4.58333" stroke-miterlimit="8" fill="#FFFFFF" fill-rule="evenodd"/><path d="M124.371 65.5002C125.726 65.1587 127.419 64.8168 128.774 64.1335 131.145 62.7668 132.5 60.0335 132.5 55.2501 132.5 49.7834 131.145 44.3167 128.435 39.5333 124.71 32.7 118.613 27.5747 111.5 24.4999 119.968 35.4333 124.71 48.7586 124.71 62.4253 124.371 63.4501 124.371 64.475 124.371 65.5002Z" stroke="#000000" stroke-width="4.58333" stroke-miterlimit="8" fill="#FFFFFF" fill-rule="evenodd"/><path d="M115.571 84.2059C113.854 85.584 112.136 86.9622 110.076 88.3403 108.015 89.7185 105.954 90.7523 103.894 91.0966 101.49 91.7857 99.0858 92.1301 96.6819 92.1301 88.7827 92.1301 81.5708 87.6513 78.1364 80.7605 76.4191 76.9708 75.389 72.8364 75.0453 68.7016 75.0453 67.3238 76.0758 66.29 77.1059 66.29 77.1059 66.29 77.1059 66.29 77.4496 66.29L116.944 66.29C119.349 66.29 122.096 65.9456 124.5 65.6009 124.5 64.5671 124.5 63.5337 124.5 62.5002 124.5 48.7188 119.692 34.9369 111.106 24.2565 106.298 22.5336 100.803 21.5002 95.6514 21.5002 90.1565 21.5002 84.3183 22.5336 79.1666 24.6008 74.3585 26.3237 70.2373 29.08 66.8029 32.8697 63.3686 36.6598 60.6211 41.1386 59.2473 45.9625 57.5304 51.4747 56.4999 56.9877 56.4999 62.5002 56.4999 75.2479 59.9342 85.2393 67.1465 92.4748 74.3585 99.7099 84.3183 103.5 97.3688 103.5 101.833 103.5 106.298 103.155 110.763 101.777 116.601 94.8867 120.379 86.6178 122.783 78.0042 122.439 78.3486 122.096 78.3486 121.752 78.6933 120.379 79.7271 117.288 82.8277 115.571 84.2059ZM75.389 54.5757C75.7322 48.7188 77.7928 43.5505 81.5708 39.0717 85.0051 35.2816 90.1565 33.2144 95.3082 33.2144 100.46 32.8697 105.611 34.9369 109.389 38.727 113.167 43.2058 115.227 48.7188 115.227 54.5757 115.227 55.9539 114.197 56.6429 112.823 56.6429L77.7928 56.6429C76.4191 56.9877 75.0453 55.9539 75.389 54.5757Z" stroke="#000000" stroke-width="4.58333" stroke-miterlimit="8" fill="#FFFFFF" fill-rule="evenodd"/></g></svg>